<?xml version="1.0" standalone="no"?>
<!DOCTYPE svg PUBLIC "-//W3C//DTD SVG 20010904//EN"
 "http://www.w3.org/TR/2001/REC-SVG-20010904/DTD/svg10.dtd">
<svg version="1.0" xmlns="http://www.w3.org/2000/svg"
 width="700.000000pt" height="700.000000pt" viewBox="0 0 700.000000 700.000000"
 preserveAspectRatio="xMidYMid meet">
<metadata>
Created by potrace 1.14, written by Peter Selinger 2001-2017
</metadata>
<g transform="translate(0.000000,700.000000) scale(0.100000,-0.100000)"
fill="#000000" stroke="none">
<path d="M6047 6744 c-1 -1 -132 -5 -292 -8 -159 -4 -346 -9 -415 -11 -69 -3
-183 -7 -255 -9 -71 -3 -220 -8 -330 -12 -240 -9 -361 -9 -475 0 -242 18 -487
23 -580 11 -25 -3 -63 -8 -85 -10 -63 -8 -160 -44 -204 -76 -50 -36 -84 -88
-108 -165 -30 -100 -24 -1010 12 -1654 3 -52 8 -140 11 -195 l5 -100 -669 -2
-670 -2 4 62 c5 101 14 211 18 232 2 11 7 42 10 68 10 63 10 66 35 172 23 96
35 133 76 240 40 103 42 135 11 173 -23 26 -42 34 -134 55 -132 31 -192 39
-292 39 -89 0 -149 -14 -205 -47 -122 -72 -142 -196 -99 -630 2 -27 7 -68 10
-90 3 -22 7 -51 9 -65 6 -45 17 -115 22 -135 2 -11 7 -35 10 -52 l6 -33 -87
-1 c-47 0 -101 -1 -118 -2 l-33 -1 -1 60 c-1 32 -6 86 -12 119 -30 161 -33
188 -36 327 -3 136 -7 148 -58 174 -34 18 -200 20 -272 4 -100 -22 -176 -73
-211 -140 -40 -77 -37 -325 5 -477 10 -37 18 -68 17 -69 -1 -1 -60 -4 -132 -7
-167 -7 -221 -24 -272 -81 -72 -82 -75 -99 -68 -461 3 -176 7 -342 9 -370 2
-27 7 -97 10 -155 4 -58 9 -116 11 -130 2 -14 7 -61 10 -105 4 -44 8 -93 10
-110 2 -16 7 -57 10 -90 3 -33 8 -76 10 -95 2 -19 7 -60 10 -90 3 -30 8 -68
10 -85 2 -16 9 -73 15 -125 15 -130 20 -162 26 -183 4 -13 -11 -35 -51 -75
-114 -115 -204 -271 -246 -428 -24 -91 -33 -275 -18 -369 25 -159 99 -330 200
-465 223 -295 562 -434 893 -365 387 80 695 419 730 805 5 57 19 85 36 75 6
-3 99 -11 255 -21 55 -3 123 -8 150 -9 381 -27 972 -27 1180 0 17 2 55 6 85
10 45 4 123 18 242 40 12 3 20 -4 22 -18 43 -201 69 -284 135 -417 99 -201
231 -368 412 -523 51 -44 213 -154 279 -189 149 -80 395 -164 535 -182 17 -3
53 -8 80 -11 72 -11 270 -12 340 -3 33 4 77 10 97 12 121 16 324 86 458 159
173 94 364 255 480 402 17 22 36 47 43 55 158 203 284 509 324 791 15 99 8
387 -11 484 -80 412 -325 770 -687 1004 -48 31 -100 64 -117 73 -30 16 -31 19
-27 70 2 29 6 109 10 178 5 124 10 213 20 385 5 89 9 175 20 395 12 245 25
495 30 585 3 39 7 124 10 190 12 234 14 275 20 392 3 65 8 152 10 193 2 41 7
125 10 185 3 61 7 139 10 175 2 36 7 115 10 175 3 61 8 144 10 185 16 255 16
299 0 330 -27 52 -56 64 -162 65 -52 0 -95 0 -96 -1z m-1092 -250 c94 -4 341
-8 550 -9 230 -2 390 -7 405 -13 76 -31 111 -106 136 -292 2 -19 8 -64 13
-100 9 -63 7 -339 -3 -410 -3 -19 -10 -89 -16 -155 -6 -66 -13 -136 -16 -155
-5 -46 -13 -168 -19 -307 -10 -234 -16 -361 -20 -448 -4 -85 -8 -166 -20 -420
-7 -152 -15 -305 -20 -400 -2 -44 -7 -152 -11 -239 -5 -135 -8 -174 -13 -194
-1 -1 -10 2 -22 9 -31 16 -201 56 -309 73 -92 14 -361 15 -438 2 -93 -16 -99
-18 -120 -47 -8 -11 -32 -20 -70 -24 -425 -49 -803 -364 -1025 -852 -91 -202
-143 -426 -151 -652 -3 -63 -4 -66 -27 -65 -40 2 -153 15 -167 20 -25 8 -285
18 -452 18 -220 -1 -479 -15 -705 -39 -22 -3 -71 -7 -110 -10 -82 -7 -118 -11
-200 -20 -33 -4 -76 -9 -95 -11 -41 -4 -121 -13 -167 -19 -36 -4 -40 -1 -48
43 -3 17 -20 78 -39 134 -114 347 -326 629 -511 676 -58 15 -107 19 -135 12
-19 -5 -30 -1 -46 19 -19 23 -28 25 -90 24 -140 -1 -303 -42 -438 -109 -48
-24 -89 -44 -90 -44 0 0 -1 141 -2 313 0 404 -11 682 -30 832 -46 346 -41 418
37 517 56 70 137 94 354 103 72 3 173 8 225 11 227 13 338 15 1575 29 679 8
799 14 839 41 32 20 45 60 34 104 -12 47 -12 37 -3 190 13 233 27 628 28 770
0 57 -7 196 -19 340 -6 76 -5 243 1 285 18 123 89 225 210 301 125 79 278 124
545 159 14 2 102 7 195 10 94 4 171 8 172 9 3 2 157 -2 328 -10z m-3099 -1148
c20 -4 47 -9 59 -12 l23 -6 -29 -78 c-48 -132 -102 -369 -113 -495 -2 -27 -5
-95 -5 -150 l-1 -100 -95 -2 c-92 -2 -95 -2 -96 20 0 12 -2 31 -4 42 -9 45
-19 311 -18 473 1 230 17 274 109 305 38 14 96 14 170 3z m-860 -461 c2 -145
20 -250 58 -328 13 -29 23 -54 21 -57 -2 -3 -66 -7 -143 -9 l-140 -2 -7 38
c-4 20 -9 105 -11 188 -5 162 5 232 37 261 23 21 97 41 147 39 l37 -1 1 -129z
m4449 -1679 c28 -3 61 -8 75 -11 13 -2 42 -7 63 -10 58 -9 232 -62 317 -98 70
-29 93 -40 203 -100 268 -149 497 -432 585 -722 56 -181 64 -440 22 -629 -99
-446 -380 -810 -765 -990 -79 -37 -223 -84 -283 -92 -26 -3 -51 -8 -56 -11 -4
-3 -70 -7 -145 -9 -204 -4 -378 25 -546 93 -538 216 -860 671 -858 1214 0 41
3 100 7 130 4 30 10 72 13 94 23 176 124 423 241 590 69 99 62 90 152 183 220
227 479 348 791 368 57 4 106 8 107 10 2 1 9 1 15 -1 7 -2 35 -6 62 -9z
m-4535 -758 c0 -12 10 -32 22 -45 18 -19 32 -23 83 -23 245 0 390 -116 504
-407 66 -165 85 -252 86 -383 0 -122 -11 -172 -61 -276 -76 -157 -256 -300
-439 -350 -79 -21 -236 -26 -308 -9 -169 39 -368 183 -456 329 -142 236 -115
538 71 803 104 148 240 265 408 350 77 39 90 40 90 11z"/>
<path d="M5538 6145 c-2 -2 -57 -6 -123 -10 -67 -4 -141 -8 -165 -10 -25 -2
-90 -6 -145 -10 -55 -3 -132 -8 -171 -10 -39 -3 -109 -7 -155 -10 -85 -4 -214
-12 -349 -21 -41 -2 -106 -6 -145 -9 -38 -2 -106 -7 -150 -10 -44 -3 -123 -7
-175 -10 -114 -6 -145 -17 -159 -56 -13 -39 1 -75 38 -96 26 -16 28 -21 26
-67 -5 -74 -15 -373 -20 -581 -3 -99 -7 -247 -10 -329 -6 -143 -5 -149 17
-182 23 -33 53 -48 98 -47 48 1 356 14 440 18 270 14 369 17 590 20 251 3 313
11 380 45 87 44 122 103 135 225 4 38 15 513 19 792 1 72 4 134 6 136 3 3 22
8 43 11 49 8 70 19 96 52 52 67 6 163 -77 162 -23 0 -42 -2 -44 -3z m-254
-317 c-4 -138 -6 -463 -4 -578 3 -135 -9 -188 -53 -237 -55 -60 -108 -66 -622
-78 -126 -3 -255 -7 -285 -9 -30 -2 -106 -7 -167 -10 l-113 -6 -1 72 c0 40 -2
100 -4 133 -2 33 -6 143 -9 245 -9 278 -17 452 -21 480 -3 13 -1 27 4 30 5 3
51 2 103 -1 102 -6 723 -2 803 6 28 2 86 7 130 10 114 7 219 17 224 21 12 11
16 -12 15 -78z"/>
<path d="M4257 4483 c-2 -1 -41 -4 -87 -8 -181 -12 -193 -14 -222 -45 -29 -32
-30 -70 -1 -102 22 -24 49 -28 283 -44 164 -11 176 -11 226 2 114 29 129 143
24 185 -28 11 -214 21 -223 12z"/>
<path d="M3838 4023 c-17 -20 -73 -246 -103 -415 -50 -279 -36 -599 28 -658
36 -34 90 -20 108 28 7 16 12 148 14 327 2 165 5 316 8 335 3 19 9 66 12 104
4 38 9 79 11 92 15 81 20 152 14 170 -14 37 -66 46 -92 17z"/>
<path d="M5388 2525 c-3 -3 -32 -8 -64 -11 -355 -30 -638 -264 -705 -581 -87
-413 269 -830 701 -822 298 6 563 206 666 505 24 69 28 94 28 199 0 86 -5 137
-18 180 -78 259 -272 457 -511 521 -53 14 -88 18 -97 9z m-73 -176 c4 -6 49
-30 100 -55 51 -24 120 -64 153 -88 55 -41 132 -128 161 -184 47 -89 57 -235
22 -334 -67 -193 -258 -331 -456 -329 -156 1 -343 119 -412 260 -25 50 -28 67
-28 156 0 88 4 108 29 164 63 146 174 273 321 369 81 53 99 60 110 41z"/>
<path d="M818 2006 c-138 -57 -239 -181 -255 -313 -3 -26 -6 -50 -6 -53 -1 -3
3 -32 7 -65 24 -183 172 -311 368 -320 169 -8 320 78 389 221 76 160 20 330
-148 445 -56 39 -102 58 -170 70 -31 6 -62 17 -70 25 -20 20 -49 17 -115 -10z
m91 -212 c127 -6 174 -30 215 -111 52 -104 -42 -218 -178 -216 -133 1 -202
101 -175 252 10 54 28 93 40 85 5 -3 49 -7 98 -10z"/>
</g>
</svg>
